<svg xmlns="http://www.w3.org/2000/svg" xmlns:xlink="http://www.w3.org/1999/xlink" version="1.1" x="0px" y="0px" viewBox="0 0 24 24" enable-background="new 0 0 24 24" xml:space="preserve"><g><path d="M21.565,7H2.435C2.195,7,2,6.74,2,6.5S2.195,6,2.435,6h19.13C21.805,6,22,6.26,22,6.5S21.805,7,21.565,7z"></path><path d="M21.565,12H2.435C2.195,12,2,11.74,2,11.5S2.195,11,2.435,11h19.13C21.805,11,22,11.26,22,11.5S21.805,12,21.565,12z"></path><path d="M21.565,17H2.435C2.195,17,2,16.74,2,16.5S2.195,16,2.435,16h19.13C21.805,16,22,16.26,22,16.5S21.805,17,21.565,17z"></path></g></svg>